#N canvas 385 22 697 557 10;
#X obj 29 110 dac~;
#X obj 81 54 vline~;
#X obj 36 77 *~;
#X msg 83 23 1 0 \, 0 0 10;
#X text 80 4 go to 1 in 0ms \, go to 0 in 0 ms after waiting 10ms;
#X obj 313 266 delwrite~ delay 10;
#X obj 168 255 delread~ delay 10;
#X obj 176 324 lop~ 5000;
#X obj 420 84 mtof;
#X floatatom 414 36 5 0 0 0 - - -;
#X floatatom 429 154 5 0 0 0 - - -;
#X obj 455 259 t b f;
#X floatatom 514 295 5 0 0 0 - - -;
#X obj 466 209 /;
#X msg 377 157 1000;
#X obj 253 326 *~ 0.99;
#X obj 9 41 noise~;
#X obj 317 351 notein;
#X floatatom 287 386 5 0 0 0 - - -;
#X floatatom 381 379 5 0 0 0 - - -;
#X floatatom 335 391 5 0 0 0 - - -;
#X connect 1 0 2 1;
#X connect 2 0 0 0;
#X connect 2 0 0 1;
#X connect 2 0 5 0;
#X connect 3 0 1 0;
#X connect 6 0 7 0;
#X connect 7 0 15 0;
#X connect 7 0 0 0;
#X connect 7 0 0 1;
#X connect 8 0 10 0;
#X connect 9 0 8 0;
#X connect 9 0 14 0;
#X connect 10 0 13 1;
#X connect 11 1 3 0;
#X connect 12 0 6 0;
#X connect 13 0 11 0;
#X connect 13 0 12 0;
#X connect 14 0 13 0;
#X connect 15 0 5 0;
#X connect 16 0 2 0;
#X connect 17 0 18 0;
#X connect 17 1 20 0;
#X connect 17 2 19 0;
#X connect 20 0 9 0;
